<svg xmlns="http://www.w3.org/2000/svg" viewBox="0 0 202.68 161.16"><defs><style>.cls-1{fill:#fff;}</style></defs><g id="Capa_2" data-name="Capa 2"><g id="Capa_1-2" data-name="Capa 1"><path class="cls-1" d="M177.53,101.51c-.44-1-2.26-1.91-3.44-1.92q-25.71-.18-51.42,0c-1.14,0-2.86.53-3.33,1.45-2.57,4.94-4.84,10.07-7.53,15.84h5c15.32,0,30.64.08,46-.06,2.94,0,4.6.71,5.91,4,5.05,12.51,10.41,24.87,15.79,37.21.56,1.29,2,2.89,3.12,3,4.77.33,9.57.14,15.13.14C194.1,140.64,185.9,121,177.53,101.51Z"/><path class="cls-1" d="M42.14,93.58c3.15,0,4.59-1.33,5.88-4.23L79.2,18c-2.1-3.46-7.56-12.32-9.73-16.94L28,93.73C33.34,93.64,37.5,93.54,42.14,93.58Z"/><path class="cls-1" d="M160.65,94.29H176L138.54,0V1.56a.3.3,0,0,0,0-.08c-1.06,2.21-1.69,3.45-2.25,4.71q-19.9,44.64-39.72,89.3c-1.35,3.05-2.91,4.11-5.94,4.09-20.12-.15-40.25,0-60.36-.17-3.39,0-5.07,1.23-6.44,4.61-4.94,12.25-10.18,24.35-15.28,36.52C5.74,147.16,3,153.81,0,161.08c4.83,0,9-.2,13.08.06,2.85.18,4.35-.82,5.58-3.84C23.62,145.07,29,133,34,120.8c1.19-2.91,2.54-4,5.49-4,14.27.18,28.56.08,42.83.08h4.53c-6.62,15-12.92,29.26-19.52,44.19,6,0,11.28.12,16.54-.12.92-.05,2.11-1.49,2.61-2.61q26.31-59,52.51-118.1Z"/></g></g></svg>